<?xml version="1.0" encoding="utf-8"?>
<!-- Generator: Adobe Illustrator 27.1.1, SVG Export Plug-In . SVG Version: 6.00 Build 0)  -->
<svg version="1.1" id="Layer_1" xmlns="http://www.w3.org/2000/svg" xmlns:xlink="http://www.w3.org/1999/xlink" x="0px" y="0px"
	 viewBox="0 0 1920 1080" style="enable-background:new 0 0 1920 1080;" xml:space="preserve">
<style type="text/css">
	.st0{fill:#FFB700;}
	.st1{fill:none;stroke:#FFB700;stroke-width:2;stroke-miterlimit:10;}
	.st2{stroke:#000000.}
	.st3{font-family:'Poppins-Regular';}
	.st4{font-size:305.9883px;}
</style>
<polygon class="st0" points="167.56,330.89 156.33,396.98 300.94,397.29 124.2,590.4 116.62,637.39 364.96,637.09 376.43,570.39 
	232.43,569.48 408.87,377.28 416.84,330.89 "/>
<polygon class="st0" points="457.62,330.89 540.25,330.89 489.31,637.39 406.12,637.39 "/>
<path class="st0" d="M770.24,345.75c-26.75-15.52-58.08-14.55-61.24-14.55h-46.69l-81.88-0.3l-51.5,306.5h83.19l15.02-92.16
	l0.1-0.61h42.04c0,0,69.43,7.28,111.27-46.69S818.14,373.64,770.24,345.75z M713.25,460.34c-9.96,13.28-22.56,19.24-32.59,20.94
	c-0.67,0.12-1.32,0.21-1.97,0.29c-2.73,0.3-13.95,0.45-24.56,0.45h-0.79c-6.18,0.01-12.01-0.04-15.78-0.15v-0.01l13.99-85.13
	l36.23,0.56c0,0,24.04,1.9,30.32,17.58C724.16,430.03,720.52,450.64,713.25,460.34z"/>
<path class="st1" d="M1724.12,532.03h-136.39l-3.59,30.45c-1,8.5-7.15,8.36-8.06-0.19l-9.69-49.82c-0.95-9.05-7.59-8.46-8.14,0.72
	l-9.24,144.04c-0.58,9.73-7.76,9.54-8.21-0.22l-10.18-253.3c-0.44-9.59-7.46-10.01-8.19-0.49l-8.74,113.86
	c-0.73,9.45-7.68,9.13-8.18-0.37l-8.73-164.79c-0.52-9.86-7.83-9.67-8.22,0.22l-10.06,258.13c-0.38,9.83-7.63,10.11-8.21,0.32
	l-10.28-174.49c-0.55-9.41-7.42-9.69-8.17-0.33l-7.05,107.21c-0.76,9.45-7.72,9.03-8.18-0.49l-10.83-241.42
	c-0.48-9.95-7.87-9.76-8.22,0.21l-9.9,277.99c-0.35,9.96-7.73,10.16-8.22,0.22l-7.35-148.39c-0.49-9.92-7.85-9.75-8.22,0.2
	l-10.65,286.04c-0.38,10.13-7.92,10.03-8.23-0.1l-9.64-312.83c-0.31-10.08-7.8-10.25-8.23-0.19l-8.74,205.12
	c-0.42,9.75-7.59,10.04-8.2,0.33l-8.93-141.02c-0.58-9.09-7.14-9.67-8.12-0.72l-9.75,102.52c-0.93,8.45-7.01,8.59-8.04,0.19
	l-6.14-86.98c-1.05-8.55-7.27-8.2-8.07,0.46l-4.23,65.14c-0.85,9.22-7.61,8.78-8.16-0.52l-12.99-102.9
	c-0.57-9.74-7.77-9.56-8.21,0.22l-12.22,206.04c-0.45,10.04-7.92,9.84-8.23-0.23l-10.14-293.76c-0.31-10.07-7.78-10.27-8.23-0.22
	l-8.44,190.11c-0.44,9.99-7.86,9.88-8.22-0.12l-9.58-271.41c-0.37-10.12-7.91-10.05-8.23,0.07l-8.41,255.51"/>
<path class="st1" d="M581.12,522.03h188.39l3.59,30.45c1,8.5,7.16,8.36,8.06-0.19l10.69-47.82c0.95-9.05,7.59-8.46,8.14,0.72
	l8.24,70.04c0.58,9.73,7.76,9.54,8.21-0.22l10.18-181.3c0.44-9.59,7.46-10.01,8.19-0.49l8.74,113.86c0.73,9.45,7.68,9.13,8.18-0.37
	l8.73-164.79c0.52-9.86,7.83-9.67,8.22,0.22l10.06,258.13c0.38,9.83,7.63,10.11,8.21,0.32l10.28-174.49
	c0.55-9.41,7.42-9.69,8.17-0.33l7.05,88.21c0.76,9.45,7.72,9.03,8.18-0.49l10.83-222.42c0.48-9.95,7.87-9.76,8.22,0.21l9.9,277.99
	c0.35,9.96,7.73,10.16,8.22,0.22l7.35-148.39c0.49-9.92,7.85-9.75,8.22,0.2l10.65,234.04c0.38,10.13,7.92,10.03,8.23-0.1
	l9.64-275.83c0.31-10.08,7.8-10.25,8.23-0.19l8.74,220.12c0.42,9.75,7.59,10.04,8.2,0.33l8.93-181.02c0.58-9.09,7.14-9.67,8.12-0.72
	l9.75,128.52c0.93,8.45,7.01,8.59,8.04,0.19l6.14-49.98c1.05-8.55,7.27-8.2,8.07,0.46l6.23,111.14c0.85,9.22,7.61,8.78,8.16-0.52
	l12.99-216.9c0.57-9.74,7.77-9.56,8.21,0.22l10.22,291.04c0.45,10.04,7.92,9.84,8.23-0.23l10.14-333.76
	c0.31-10.07,7.78-10.27,8.23-0.22l8.44,190.11c0.44,9.99,7.86,9.88,8.22-0.12l9.58-261.41c0.37-10.12,7.91-10.05,8.23,0.07
	l8.41,244.12"/>
<text transform="matrix(1 0 0 1 808.9811 637.627)" class="st2 st3 st4">tunes</text>
</svg>
